<svg width="191" height="38" viewBox="0 0 191 38" fill="none" xmlns="http://www.w3.org/2000/svg">
<path d="M20.06 24.5178L18.4888 28.9598H18.3579C18.096 27.9582 17.6159 26.4339 16.8303 24.6049L8.40714 3.48347H0.158508V37.1471H5.61395V16.3741C5.61395 15.0676 5.61395 13.5869 5.57031 11.7578C5.52666 10.8433 5.43938 10.1465 5.39574 9.62392H5.52666C5.78852 10.9304 6.09403 11.8885 6.31225 12.4982L16.4376 37.06H20.2782L30.3162 12.2804C30.5344 11.7143 30.7526 10.582 30.9709 9.62392H31.1018C30.9709 12.1062 30.8836 14.3272 30.8399 15.6773V37.0164H36.6445V3.39637H28.7014L20.06 24.5178ZM42.1436 12.8901H47.8173V37.0164H42.1436V12.8901ZM45.0241 2.69958C44.0639 2.69958 43.2783 3.04798 42.6237 3.65767C41.969 4.26736 41.6199 5.05124 41.6199 6.00933C41.6199 6.92386 41.969 7.70775 42.6237 8.31744C43.2783 8.92713 44.0639 9.23197 45.0241 9.23197C45.9842 9.23197 46.8135 8.88358 47.4245 8.31744C48.0791 7.70775 48.4283 6.92386 48.4283 6.00933C48.4283 5.09479 48.0791 4.31091 47.4245 3.65767C46.8571 3.04798 46.0279 2.69958 45.0241 2.69958ZM67.937 12.6724C66.8895 12.4546 65.7984 12.324 64.751 12.324C62.176 12.324 59.8192 12.8901 57.8553 14.0224C55.8913 15.1547 54.3202 16.7225 53.3164 18.6822C52.2689 20.6854 51.7452 22.9935 51.7452 25.6501C51.7452 27.9582 52.2689 30.005 53.2727 31.8776C54.2765 33.7067 55.6731 35.1873 57.5498 36.189C59.3392 37.1906 61.4341 37.7132 63.7908 37.7132C66.4967 37.7132 68.8098 37.1471 70.6429 36.1019L70.6865 36.0583V30.8324L70.4683 31.0066C69.6391 31.6163 68.6789 32.1389 67.7187 32.4437C66.7149 32.7921 65.7984 32.9663 65.0128 32.9663C62.7434 32.9663 60.954 32.3131 59.6883 30.876C58.379 29.4824 57.7244 27.5662 57.7244 25.171C57.7244 22.6887 58.379 20.729 59.732 19.2919C61.0849 17.8547 62.8743 17.1144 65.0565 17.1144C66.8895 17.1144 68.7662 17.7241 70.4683 18.9435L70.6865 19.1177V13.5869L70.6429 13.5434C69.9009 13.2385 69.0717 12.8901 67.937 12.6724ZM86.66 12.4982C85.2634 12.4982 83.9541 12.9337 82.8194 13.8482C81.8593 14.6321 81.2046 15.7644 80.6372 17.1144H80.5936V12.8901H74.9199V37.0164H80.5936V24.692C80.5936 22.6016 81.03 20.8596 81.9902 19.5967C82.9503 18.2902 84.1724 17.637 85.6562 17.637C86.18 17.637 86.7037 17.7676 87.3583 17.8547C87.9693 18.0289 88.4058 18.2031 88.7113 18.4209L88.9295 18.5951V12.9337L88.7986 12.8901C88.4058 12.6288 87.6202 12.4982 86.66 12.4982ZM102.11 12.3675C98.1383 12.3675 94.9523 13.5434 92.7265 15.8515C90.457 18.1596 89.3659 21.3387 89.3659 25.3452C89.3659 29.0904 90.5007 32.1389 92.6829 34.3599C94.865 36.5374 97.8328 37.6697 101.542 37.6697C105.427 37.6697 108.525 36.4938 110.751 34.1422C113.021 31.7905 114.112 28.655 114.112 24.7791C114.112 20.9467 113.064 17.8983 110.926 15.6773C108.875 13.4563 105.863 12.3675 102.11 12.3675ZM106.649 30.9195C105.601 32.2695 103.943 32.9228 101.892 32.9228C99.8404 32.9228 98.1819 32.2695 97.0036 30.8324C95.8252 29.4824 95.2578 27.5227 95.2578 25.0404C95.2578 22.471 95.8688 20.5112 97.0036 19.1177C98.1819 17.7241 99.7968 17.0273 101.848 17.0273C103.856 17.0273 105.427 17.6805 106.562 19.0306C107.696 20.3806 108.307 22.3403 108.307 24.9097C108.22 27.5227 107.74 29.5695 106.649 30.9195ZM126.768 22.9064C124.979 22.1661 123.844 21.6 123.321 21.1209C122.884 20.6854 122.666 20.0757 122.666 19.2919C122.666 18.6386 122.928 17.9854 123.582 17.5499C124.237 17.1144 124.979 16.8966 126.07 16.8966C127.03 16.8966 128.034 17.0708 128.994 17.3321C129.954 17.5934 130.827 17.9854 131.526 18.508L131.744 18.6822V13.3692L131.613 13.3256C130.958 13.0643 130.085 12.803 129.038 12.5853C127.99 12.4111 127.03 12.324 126.245 12.324C123.539 12.324 121.313 12.9772 119.567 14.4143C117.822 15.7644 116.992 17.5934 116.992 19.7274C116.992 20.8596 117.167 21.8613 117.56 22.6887C117.952 23.5161 118.52 24.3 119.305 24.9533C120.091 25.563 121.226 26.2597 122.797 26.913C124.106 27.4791 125.11 27.9146 125.721 28.263C126.332 28.6114 126.725 29.0033 127.03 29.3082C127.249 29.6566 127.379 30.0921 127.379 30.6582C127.379 32.2695 126.157 33.0534 123.67 33.0534C122.71 33.0534 121.706 32.8792 120.527 32.4873C119.349 32.0953 118.258 31.5292 117.341 30.876L117.123 30.7018V36.2325L117.254 36.2761C118.083 36.668 119.087 36.9293 120.309 37.2342C121.531 37.4519 122.622 37.6261 123.582 37.6261C126.507 37.6261 128.907 36.9729 130.609 35.5357C132.355 34.1422 133.271 32.3566 133.271 30.0485C133.271 28.4372 132.835 27.0001 131.875 25.9113C130.609 24.8662 129.038 23.7774 126.768 22.9064ZM148.241 12.3675C144.27 12.3675 141.084 13.5434 138.858 15.8515C136.632 18.1596 135.497 21.3387 135.497 25.3452C135.497 29.0904 136.632 32.1389 138.814 34.3599C140.996 36.5374 143.964 37.6697 147.674 37.6697C151.558 37.6697 154.657 36.4938 156.883 34.1422C159.152 31.7905 160.243 28.655 160.243 24.7791C160.243 20.9467 159.196 17.8983 157.057 15.6773C155.006 13.4563 151.994 12.3675 148.241 12.3675ZM152.736 30.9195C151.689 32.2695 150.03 32.9228 147.979 32.9228C145.884 32.9228 144.27 32.2695 143.091 30.8324C141.913 29.4824 141.345 27.5227 141.345 25.0404C141.345 22.471 141.956 20.5112 143.091 19.1177C144.27 17.7241 145.884 17.0273 147.936 17.0273C149.9 17.0273 151.514 17.6805 152.649 19.0306C153.784 20.3806 154.395 22.3403 154.395 24.9097C154.395 27.5227 153.827 29.5695 152.736 30.9195ZM190.575 17.5499V12.8901H184.858V5.74803L184.683 5.79158L179.272 7.4029L179.141 7.44645V12.8901H170.587V9.84166C170.587 8.44809 170.936 7.35936 171.547 6.66257C172.158 5.96578 173.074 5.61738 174.209 5.61738C174.995 5.61738 175.824 5.79158 176.74 6.18353L176.959 6.31417V1.3931L176.828 1.34956C176.042 1.08826 174.995 0.914062 173.642 0.914062C171.94 0.914062 170.456 1.30601 169.103 1.95924C167.75 2.69958 166.746 3.70122 166.004 5.05124C165.262 6.35772 164.869 7.8384 164.869 9.53682V12.8901H160.898V17.5063H164.869V37.0164H170.587V17.5499H179.141V29.9614C179.141 35.0567 181.541 37.6261 186.342 37.6261C187.128 37.6261 187.957 37.4955 188.742 37.3648C189.572 37.1906 190.183 36.9729 190.532 36.7987L190.575 36.7551V32.0953L190.357 32.2695C190.008 32.4873 189.702 32.6615 189.179 32.7921C188.742 32.9228 188.35 32.9663 188.044 32.9663C186.909 32.9663 186.124 32.705 185.556 32.0518C185.033 31.4421 184.771 30.4405 184.771 28.9598V17.5499H190.575Z" fill="#737373"/>
</svg>
